<mxfile host="app.diagrams.net" modified="2022-11-02T20:10:21.808Z" agent="5.0 (Windows NT 10.0; Win64; x64) AppleWebKit/537.36 (KHTML, like Gecko) Chrome/107.0.0.0 Safari/537.36" etag="W8x_zkcItYLukeDDMF2r" version="20.5.1" type="github">
  <diagram id="C0nI37HlSCA-0R0Rkvo9" name="Page-1">
    <mxGraphModel dx="1157" dy="1743" grid="1" gridSize="10" guides="1" tooltips="1" connect="1" arrows="1" fold="1" page="1" pageScale="1" pageWidth="850" pageHeight="1100" math="0" shadow="0">
      <root>
        <mxCell id="0" />
        <mxCell id="1" parent="0" />
        <mxCell id="CYsOR69pvxUt32WjJ6Wk-1" value="&lt;h1 style=&quot;font-family: &amp;quot;Times New Roman&amp;quot;; font-size: 16px;&quot;&gt;&lt;span style=&quot;font-weight: normal;&quot;&gt;&lt;font face=&quot;Helvetica&quot;&gt;Documents&lt;/font&gt;&lt;/span&gt;&lt;/h1&gt;" style="rounded=0;whiteSpace=wrap;html=1;" vertex="1" parent="1">
          <mxGeometry x="130" y="90" width="120" height="60" as="geometry" />
        </mxCell>
        <mxCell id="CYsOR69pvxUt32WjJ6Wk-2" value="Aadhar_number" style="ellipse;whiteSpace=wrap;html=1;" vertex="1" parent="1">
          <mxGeometry x="10" y="150" width="100" height="60" as="geometry" />
        </mxCell>
        <mxCell id="CYsOR69pvxUt32WjJ6Wk-3" value="Certificate" style="ellipse;whiteSpace=wrap;html=1;" vertex="1" parent="1">
          <mxGeometry x="10" y="30" width="100" height="60" as="geometry" />
        </mxCell>
        <mxCell id="CYsOR69pvxUt32WjJ6Wk-4" value="GST_number" style="ellipse;whiteSpace=wrap;html=1;" vertex="1" parent="1">
          <mxGeometry x="270" y="150" width="100" height="60" as="geometry" />
        </mxCell>
        <mxCell id="CYsOR69pvxUt32WjJ6Wk-5" value="Pancard" style="ellipse;whiteSpace=wrap;html=1;" vertex="1" parent="1">
          <mxGeometry x="270" y="30" width="100" height="60" as="geometry" />
        </mxCell>
        <mxCell id="CYsOR69pvxUt32WjJ6Wk-6" value="Adds" style="rhombus;whiteSpace=wrap;html=1;" vertex="1" parent="1">
          <mxGeometry x="150" y="220" width="80" height="80" as="geometry" />
        </mxCell>
        <mxCell id="CYsOR69pvxUt32WjJ6Wk-7" value="&lt;h1 style=&quot;font-family: &amp;quot;Times New Roman&amp;quot;; font-size: 16px;&quot;&gt;&lt;span style=&quot;font-weight: normal;&quot;&gt;&lt;font face=&quot;Helvetica&quot;&gt;Pharmacy&lt;/font&gt;&lt;/span&gt;&lt;/h1&gt;" style="rounded=0;whiteSpace=wrap;html=1;" vertex="1" parent="1">
          <mxGeometry x="130" y="340" width="120" height="60" as="geometry" />
        </mxCell>
        <mxCell id="CYsOR69pvxUt32WjJ6Wk-8" value="Pharmacy_id" style="ellipse;whiteSpace=wrap;html=1;" vertex="1" parent="1">
          <mxGeometry x="10" y="290" width="100" height="60" as="geometry" />
        </mxCell>
        <mxCell id="CYsOR69pvxUt32WjJ6Wk-9" value="Document" style="ellipse;whiteSpace=wrap;html=1;" vertex="1" parent="1">
          <mxGeometry x="10" y="430" width="100" height="60" as="geometry" />
        </mxCell>
        <mxCell id="CYsOR69pvxUt32WjJ6Wk-10" value="Password" style="ellipse;whiteSpace=wrap;html=1;" vertex="1" parent="1">
          <mxGeometry x="140" y="450" width="100" height="60" as="geometry" />
        </mxCell>
        <mxCell id="CYsOR69pvxUt32WjJ6Wk-11" value="Email" style="ellipse;whiteSpace=wrap;html=1;" vertex="1" parent="1">
          <mxGeometry x="270" y="430" width="100" height="60" as="geometry" />
        </mxCell>
        <mxCell id="CYsOR69pvxUt32WjJ6Wk-12" value="Name" style="ellipse;whiteSpace=wrap;html=1;" vertex="1" parent="1">
          <mxGeometry x="270" y="290" width="100" height="60" as="geometry" />
        </mxCell>
        <mxCell id="CYsOR69pvxUt32WjJ6Wk-13" value="Track" style="rhombus;whiteSpace=wrap;html=1;" vertex="1" parent="1">
          <mxGeometry x="420" y="400" width="80" height="80" as="geometry" />
        </mxCell>
        <mxCell id="CYsOR69pvxUt32WjJ6Wk-14" value="&lt;h1 style=&quot;font-family: &amp;quot;Times New Roman&amp;quot;; font-size: 16px;&quot;&gt;&lt;span style=&quot;font-weight: normal;&quot;&gt;&lt;font face=&quot;Helvetica&quot;&gt;Track_Orders&lt;/font&gt;&lt;/span&gt;&lt;/h1&gt;" style="rounded=0;whiteSpace=wrap;html=1;" vertex="1" parent="1">
          <mxGeometry x="660" y="410" width="120" height="60" as="geometry" />
        </mxCell>
        <mxCell id="CYsOR69pvxUt32WjJ6Wk-15" value="Order_id" style="ellipse;whiteSpace=wrap;html=1;" vertex="1" parent="1">
          <mxGeometry x="520" y="340" width="100" height="60" as="geometry" />
        </mxCell>
        <mxCell id="CYsOR69pvxUt32WjJ6Wk-16" value="Status" style="ellipse;whiteSpace=wrap;html=1;" vertex="1" parent="1">
          <mxGeometry x="520" y="470" width="100" height="60" as="geometry" />
        </mxCell>
        <mxCell id="CYsOR69pvxUt32WjJ6Wk-17" value="Customer_id" style="ellipse;whiteSpace=wrap;html=1;" vertex="1" parent="1">
          <mxGeometry x="670" y="320" width="100" height="60" as="geometry" />
        </mxCell>
        <mxCell id="CYsOR69pvxUt32WjJ6Wk-18" value="Product_id" style="ellipse;whiteSpace=wrap;html=1;" vertex="1" parent="1">
          <mxGeometry x="670" y="500" width="100" height="60" as="geometry" />
        </mxCell>
        <mxCell id="CYsOR69pvxUt32WjJ6Wk-19" value="Customer_name" style="ellipse;whiteSpace=wrap;html=1;" vertex="1" parent="1">
          <mxGeometry x="820" y="370" width="100" height="60" as="geometry" />
        </mxCell>
        <mxCell id="CYsOR69pvxUt32WjJ6Wk-20" value="Product_name" style="ellipse;whiteSpace=wrap;html=1;" vertex="1" parent="1">
          <mxGeometry x="820" y="450" width="100" height="60" as="geometry" />
        </mxCell>
        <mxCell id="CYsOR69pvxUt32WjJ6Wk-21" value="&lt;h1 style=&quot;font-family: &amp;quot;Times New Roman&amp;quot;; font-size: 16px;&quot;&gt;&lt;span style=&quot;font-weight: normal;&quot;&gt;&lt;font face=&quot;Helvetica&quot;&gt;Products&lt;/font&gt;&lt;/span&gt;&lt;/h1&gt;" style="rounded=0;whiteSpace=wrap;html=1;" vertex="1" parent="1">
          <mxGeometry x="655" y="90" width="120" height="60" as="geometry" />
        </mxCell>
        <mxCell id="CYsOR69pvxUt32WjJ6Wk-22" value="" style="endArrow=none;html=1;rounded=0;exitX=1;exitY=0.5;exitDx=0;exitDy=0;entryX=0;entryY=0.5;entryDx=0;entryDy=0;" edge="1" parent="1" source="CYsOR69pvxUt32WjJ6Wk-7" target="CYsOR69pvxUt32WjJ6Wk-13">
          <mxGeometry width="50" height="50" relative="1" as="geometry">
            <mxPoint x="440" y="380" as="sourcePoint" />
            <mxPoint x="490" y="330" as="targetPoint" />
          </mxGeometry>
        </mxCell>
        <mxCell id="CYsOR69pvxUt32WjJ6Wk-23" value="" style="endArrow=none;html=1;rounded=0;exitX=1;exitY=0.5;exitDx=0;exitDy=0;entryX=0;entryY=0.5;entryDx=0;entryDy=0;" edge="1" parent="1" source="CYsOR69pvxUt32WjJ6Wk-6" target="CYsOR69pvxUt32WjJ6Wk-21">
          <mxGeometry width="50" height="50" relative="1" as="geometry">
            <mxPoint x="490" y="320" as="sourcePoint" />
            <mxPoint x="540" y="270" as="targetPoint" />
          </mxGeometry>
        </mxCell>
        <mxCell id="CYsOR69pvxUt32WjJ6Wk-24" value="View" style="rhombus;whiteSpace=wrap;html=1;" vertex="1" parent="1">
          <mxGeometry x="935" y="80" width="80" height="80" as="geometry" />
        </mxCell>
        <mxCell id="CYsOR69pvxUt32WjJ6Wk-25" value="" style="endArrow=none;html=1;rounded=0;exitX=1;exitY=0.5;exitDx=0;exitDy=0;" edge="1" parent="1" source="CYsOR69pvxUt32WjJ6Wk-21" target="CYsOR69pvxUt32WjJ6Wk-24">
          <mxGeometry width="50" height="50" relative="1" as="geometry">
            <mxPoint x="855" y="60" as="sourcePoint" />
            <mxPoint x="905" y="10" as="targetPoint" />
          </mxGeometry>
        </mxCell>
        <mxCell id="CYsOR69pvxUt32WjJ6Wk-26" value="Product_price" style="ellipse;whiteSpace=wrap;html=1;" vertex="1" parent="1">
          <mxGeometry x="530" y="180" width="100" height="60" as="geometry" />
        </mxCell>
        <mxCell id="CYsOR69pvxUt32WjJ6Wk-27" value="Product_id" style="ellipse;whiteSpace=wrap;html=1;" vertex="1" parent="1">
          <mxGeometry x="530" width="100" height="60" as="geometry" />
        </mxCell>
        <mxCell id="CYsOR69pvxUt32WjJ6Wk-28" value="Stock" style="ellipse;whiteSpace=wrap;html=1;" vertex="1" parent="1">
          <mxGeometry x="665" y="200" width="100" height="60" as="geometry" />
        </mxCell>
        <mxCell id="CYsOR69pvxUt32WjJ6Wk-29" value="Description" style="ellipse;whiteSpace=wrap;html=1;" vertex="1" parent="1">
          <mxGeometry x="800" y="180" width="100" height="60" as="geometry" />
        </mxCell>
        <mxCell id="CYsOR69pvxUt32WjJ6Wk-32" value="Product_name" style="ellipse;whiteSpace=wrap;html=1;" vertex="1" parent="1">
          <mxGeometry x="665" y="-10" width="100" height="60" as="geometry" />
        </mxCell>
        <mxCell id="CYsOR69pvxUt32WjJ6Wk-33" value="Product_image" style="ellipse;whiteSpace=wrap;html=1;" vertex="1" parent="1">
          <mxGeometry x="800" width="100" height="60" as="geometry" />
        </mxCell>
        <mxCell id="CYsOR69pvxUt32WjJ6Wk-34" value="&lt;h1 style=&quot;font-family: &amp;quot;Times New Roman&amp;quot;; font-size: 16px;&quot;&gt;&lt;span style=&quot;font-weight: normal;&quot;&gt;&lt;font face=&quot;Helvetica&quot;&gt;Order&lt;/font&gt;&lt;/span&gt;&lt;/h1&gt;" style="rounded=0;whiteSpace=wrap;html=1;" vertex="1" parent="1">
          <mxGeometry x="1180" y="90" width="120" height="60" as="geometry" />
        </mxCell>
        <mxCell id="CYsOR69pvxUt32WjJ6Wk-35" value="Order_id" style="ellipse;whiteSpace=wrap;html=1;" vertex="1" parent="1">
          <mxGeometry x="1060" y="20" width="100" height="60" as="geometry" />
        </mxCell>
        <mxCell id="CYsOR69pvxUt32WjJ6Wk-36" value="Customer_id" style="ellipse;whiteSpace=wrap;html=1;" vertex="1" parent="1">
          <mxGeometry x="1190" y="-20" width="100" height="60" as="geometry" />
        </mxCell>
        <mxCell id="CYsOR69pvxUt32WjJ6Wk-37" value="Customer_name" style="ellipse;whiteSpace=wrap;html=1;" vertex="1" parent="1">
          <mxGeometry x="1320" y="20" width="100" height="60" as="geometry" />
        </mxCell>
        <mxCell id="CYsOR69pvxUt32WjJ6Wk-41" value="Product_id" style="ellipse;whiteSpace=wrap;html=1;" vertex="1" parent="1">
          <mxGeometry x="1060" y="180" width="100" height="60" as="geometry" />
        </mxCell>
        <mxCell id="CYsOR69pvxUt32WjJ6Wk-42" value="Product_name" style="ellipse;whiteSpace=wrap;html=1;" vertex="1" parent="1">
          <mxGeometry x="1190" y="200" width="100" height="60" as="geometry" />
        </mxCell>
        <mxCell id="CYsOR69pvxUt32WjJ6Wk-43" value="Quantity" style="ellipse;whiteSpace=wrap;html=1;" vertex="1" parent="1">
          <mxGeometry x="1320" y="180" width="100" height="60" as="geometry" />
        </mxCell>
        <mxCell id="CYsOR69pvxUt32WjJ6Wk-44" value="" style="endArrow=none;html=1;rounded=0;exitX=1;exitY=0.5;exitDx=0;exitDy=0;entryX=0;entryY=0.5;entryDx=0;entryDy=0;" edge="1" parent="1" source="CYsOR69pvxUt32WjJ6Wk-24" target="CYsOR69pvxUt32WjJ6Wk-34">
          <mxGeometry width="50" height="50" relative="1" as="geometry">
            <mxPoint x="1030" y="360" as="sourcePoint" />
            <mxPoint x="1080" y="310" as="targetPoint" />
          </mxGeometry>
        </mxCell>
        <mxCell id="CYsOR69pvxUt32WjJ6Wk-45" value="" style="endArrow=none;html=1;rounded=0;exitX=1;exitY=0.5;exitDx=0;exitDy=0;entryX=0;entryY=0.5;entryDx=0;entryDy=0;" edge="1" parent="1" source="CYsOR69pvxUt32WjJ6Wk-13" target="CYsOR69pvxUt32WjJ6Wk-14">
          <mxGeometry width="50" height="50" relative="1" as="geometry">
            <mxPoint x="230" y="270" as="sourcePoint" />
            <mxPoint x="665" y="130" as="targetPoint" />
          </mxGeometry>
        </mxCell>
        <mxCell id="CYsOR69pvxUt32WjJ6Wk-46" value="" style="endArrow=none;html=1;rounded=0;exitX=1;exitY=1;exitDx=0;exitDy=0;entryX=0;entryY=0.25;entryDx=0;entryDy=0;" edge="1" parent="1" source="CYsOR69pvxUt32WjJ6Wk-3" target="CYsOR69pvxUt32WjJ6Wk-1">
          <mxGeometry width="50" height="50" relative="1" as="geometry">
            <mxPoint x="170" y="50" as="sourcePoint" />
            <mxPoint x="220" as="targetPoint" />
          </mxGeometry>
        </mxCell>
        <mxCell id="CYsOR69pvxUt32WjJ6Wk-47" value="" style="endArrow=none;html=1;rounded=0;exitX=1;exitY=0;exitDx=0;exitDy=0;" edge="1" parent="1" source="CYsOR69pvxUt32WjJ6Wk-2">
          <mxGeometry width="50" height="50" relative="1" as="geometry">
            <mxPoint x="105.5149543936941" y="91.11699990976399" as="sourcePoint" />
            <mxPoint x="130" y="130" as="targetPoint" />
          </mxGeometry>
        </mxCell>
        <mxCell id="CYsOR69pvxUt32WjJ6Wk-48" value="" style="endArrow=none;html=1;rounded=0;exitX=1;exitY=0.25;exitDx=0;exitDy=0;entryX=0;entryY=1;entryDx=0;entryDy=0;" edge="1" parent="1" source="CYsOR69pvxUt32WjJ6Wk-1" target="CYsOR69pvxUt32WjJ6Wk-5">
          <mxGeometry width="50" height="50" relative="1" as="geometry">
            <mxPoint x="105.5149543936941" y="168.88300009023556" as="sourcePoint" />
            <mxPoint x="140" y="140" as="targetPoint" />
          </mxGeometry>
        </mxCell>
        <mxCell id="CYsOR69pvxUt32WjJ6Wk-49" value="" style="endArrow=none;html=1;rounded=0;entryX=0;entryY=0;entryDx=0;entryDy=0;exitX=1;exitY=0.75;exitDx=0;exitDy=0;" edge="1" parent="1" source="CYsOR69pvxUt32WjJ6Wk-1" target="CYsOR69pvxUt32WjJ6Wk-4">
          <mxGeometry width="50" height="50" relative="1" as="geometry">
            <mxPoint x="260" y="130" as="sourcePoint" />
            <mxPoint x="294.4850456063116" y="91.1169999097608" as="targetPoint" />
          </mxGeometry>
        </mxCell>
        <mxCell id="CYsOR69pvxUt32WjJ6Wk-50" value="" style="endArrow=none;html=1;rounded=0;exitX=0.5;exitY=0;exitDx=0;exitDy=0;entryX=0.5;entryY=1;entryDx=0;entryDy=0;" edge="1" parent="1" source="CYsOR69pvxUt32WjJ6Wk-6" target="CYsOR69pvxUt32WjJ6Wk-1">
          <mxGeometry width="50" height="50" relative="1" as="geometry">
            <mxPoint x="120" y="220" as="sourcePoint" />
            <mxPoint x="170" y="170" as="targetPoint" />
          </mxGeometry>
        </mxCell>
        <mxCell id="CYsOR69pvxUt32WjJ6Wk-51" value="" style="endArrow=none;html=1;rounded=0;exitX=0.5;exitY=1;exitDx=0;exitDy=0;entryX=0.5;entryY=0;entryDx=0;entryDy=0;" edge="1" parent="1" source="CYsOR69pvxUt32WjJ6Wk-6" target="CYsOR69pvxUt32WjJ6Wk-7">
          <mxGeometry width="50" height="50" relative="1" as="geometry">
            <mxPoint x="200" y="230" as="sourcePoint" />
            <mxPoint x="200" y="160" as="targetPoint" />
          </mxGeometry>
        </mxCell>
        <mxCell id="CYsOR69pvxUt32WjJ6Wk-52" value="" style="endArrow=none;html=1;rounded=0;exitX=1;exitY=1;exitDx=0;exitDy=0;entryX=0;entryY=0.25;entryDx=0;entryDy=0;" edge="1" parent="1" source="CYsOR69pvxUt32WjJ6Wk-8" target="CYsOR69pvxUt32WjJ6Wk-7">
          <mxGeometry width="50" height="50" relative="1" as="geometry">
            <mxPoint x="90" y="270" as="sourcePoint" />
            <mxPoint x="140" y="220" as="targetPoint" />
          </mxGeometry>
        </mxCell>
        <mxCell id="CYsOR69pvxUt32WjJ6Wk-53" value="" style="endArrow=none;html=1;rounded=0;exitX=0.763;exitY=0.05;exitDx=0;exitDy=0;exitPerimeter=0;entryX=0;entryY=0.75;entryDx=0;entryDy=0;" edge="1" parent="1" source="CYsOR69pvxUt32WjJ6Wk-9" target="CYsOR69pvxUt32WjJ6Wk-7">
          <mxGeometry width="50" height="50" relative="1" as="geometry">
            <mxPoint x="60" y="410" as="sourcePoint" />
            <mxPoint x="110" y="360" as="targetPoint" />
          </mxGeometry>
        </mxCell>
        <mxCell id="CYsOR69pvxUt32WjJ6Wk-54" value="" style="endArrow=none;html=1;rounded=0;exitX=1;exitY=0.25;exitDx=0;exitDy=0;entryX=0;entryY=1;entryDx=0;entryDy=0;" edge="1" parent="1" source="CYsOR69pvxUt32WjJ6Wk-7" target="CYsOR69pvxUt32WjJ6Wk-12">
          <mxGeometry width="50" height="50" relative="1" as="geometry">
            <mxPoint x="500" y="340" as="sourcePoint" />
            <mxPoint x="550" y="290" as="targetPoint" />
          </mxGeometry>
        </mxCell>
        <mxCell id="CYsOR69pvxUt32WjJ6Wk-55" value="" style="endArrow=none;html=1;rounded=0;exitX=0.5;exitY=0;exitDx=0;exitDy=0;entryX=0.5;entryY=1;entryDx=0;entryDy=0;" edge="1" parent="1" source="CYsOR69pvxUt32WjJ6Wk-10" target="CYsOR69pvxUt32WjJ6Wk-7">
          <mxGeometry width="50" height="50" relative="1" as="geometry">
            <mxPoint x="80" y="590" as="sourcePoint" />
            <mxPoint x="130" y="540" as="targetPoint" />
          </mxGeometry>
        </mxCell>
        <mxCell id="CYsOR69pvxUt32WjJ6Wk-56" value="" style="endArrow=none;html=1;rounded=0;exitX=0;exitY=0;exitDx=0;exitDy=0;entryX=1;entryY=0.75;entryDx=0;entryDy=0;" edge="1" parent="1" source="CYsOR69pvxUt32WjJ6Wk-11" target="CYsOR69pvxUt32WjJ6Wk-7">
          <mxGeometry width="50" height="50" relative="1" as="geometry">
            <mxPoint x="200" y="460" as="sourcePoint" />
            <mxPoint x="200" y="410" as="targetPoint" />
          </mxGeometry>
        </mxCell>
        <mxCell id="CYsOR69pvxUt32WjJ6Wk-57" value="" style="endArrow=none;html=1;rounded=0;exitX=1;exitY=1;exitDx=0;exitDy=0;entryX=0;entryY=0.25;entryDx=0;entryDy=0;" edge="1" parent="1" source="CYsOR69pvxUt32WjJ6Wk-15" target="CYsOR69pvxUt32WjJ6Wk-14">
          <mxGeometry width="50" height="50" relative="1" as="geometry">
            <mxPoint x="480" y="340" as="sourcePoint" />
            <mxPoint x="530" y="290" as="targetPoint" />
          </mxGeometry>
        </mxCell>
        <mxCell id="CYsOR69pvxUt32WjJ6Wk-58" value="" style="endArrow=none;html=1;rounded=0;exitX=1;exitY=0;exitDx=0;exitDy=0;" edge="1" parent="1" source="CYsOR69pvxUt32WjJ6Wk-16">
          <mxGeometry width="50" height="50" relative="1" as="geometry">
            <mxPoint x="650" y="410" as="sourcePoint" />
            <mxPoint x="660" y="450" as="targetPoint" />
          </mxGeometry>
        </mxCell>
        <mxCell id="CYsOR69pvxUt32WjJ6Wk-59" value="" style="endArrow=none;html=1;rounded=0;exitX=0.5;exitY=0;exitDx=0;exitDy=0;entryX=0.5;entryY=1;entryDx=0;entryDy=0;" edge="1" parent="1" source="CYsOR69pvxUt32WjJ6Wk-14" target="CYsOR69pvxUt32WjJ6Wk-17">
          <mxGeometry width="50" height="50" relative="1" as="geometry">
            <mxPoint x="560" y="320" as="sourcePoint" />
            <mxPoint x="610" y="270" as="targetPoint" />
          </mxGeometry>
        </mxCell>
        <mxCell id="CYsOR69pvxUt32WjJ6Wk-60" value="" style="endArrow=none;html=1;rounded=0;exitX=1;exitY=0.25;exitDx=0;exitDy=0;entryX=0;entryY=0.5;entryDx=0;entryDy=0;" edge="1" parent="1" source="CYsOR69pvxUt32WjJ6Wk-14" target="CYsOR69pvxUt32WjJ6Wk-19">
          <mxGeometry width="50" height="50" relative="1" as="geometry">
            <mxPoint x="820" y="330" as="sourcePoint" />
            <mxPoint x="870" y="280" as="targetPoint" />
          </mxGeometry>
        </mxCell>
        <mxCell id="CYsOR69pvxUt32WjJ6Wk-61" value="" style="endArrow=none;html=1;rounded=0;exitX=1;exitY=0.75;exitDx=0;exitDy=0;entryX=0;entryY=0.5;entryDx=0;entryDy=0;" edge="1" parent="1" source="CYsOR69pvxUt32WjJ6Wk-14" target="CYsOR69pvxUt32WjJ6Wk-20">
          <mxGeometry width="50" height="50" relative="1" as="geometry">
            <mxPoint x="790" y="435" as="sourcePoint" />
            <mxPoint x="830" y="400" as="targetPoint" />
          </mxGeometry>
        </mxCell>
        <mxCell id="CYsOR69pvxUt32WjJ6Wk-62" value="" style="endArrow=none;html=1;rounded=0;exitX=0.5;exitY=1;exitDx=0;exitDy=0;entryX=0.5;entryY=0;entryDx=0;entryDy=0;" edge="1" parent="1" source="CYsOR69pvxUt32WjJ6Wk-14" target="CYsOR69pvxUt32WjJ6Wk-18">
          <mxGeometry width="50" height="50" relative="1" as="geometry">
            <mxPoint x="790" y="435" as="sourcePoint" />
            <mxPoint x="830" y="410" as="targetPoint" />
          </mxGeometry>
        </mxCell>
        <mxCell id="CYsOR69pvxUt32WjJ6Wk-63" value="" style="endArrow=none;html=1;rounded=0;exitX=1;exitY=1;exitDx=0;exitDy=0;entryX=0;entryY=0.25;entryDx=0;entryDy=0;" edge="1" parent="1" source="CYsOR69pvxUt32WjJ6Wk-35" target="CYsOR69pvxUt32WjJ6Wk-34">
          <mxGeometry width="50" height="50" relative="1" as="geometry">
            <mxPoint x="730" y="420" as="sourcePoint" />
            <mxPoint x="730" y="390" as="targetPoint" />
          </mxGeometry>
        </mxCell>
        <mxCell id="CYsOR69pvxUt32WjJ6Wk-65" value="" style="endArrow=none;html=1;rounded=0;exitX=1;exitY=0;exitDx=0;exitDy=0;" edge="1" parent="1" source="CYsOR69pvxUt32WjJ6Wk-41">
          <mxGeometry width="50" height="50" relative="1" as="geometry">
            <mxPoint x="1155.51495439367" y="81.1169999097499" as="sourcePoint" />
            <mxPoint x="1180" y="130" as="targetPoint" />
          </mxGeometry>
        </mxCell>
        <mxCell id="CYsOR69pvxUt32WjJ6Wk-66" value="" style="endArrow=none;html=1;rounded=0;exitX=0.5;exitY=0;exitDx=0;exitDy=0;entryX=0.5;entryY=1;entryDx=0;entryDy=0;" edge="1" parent="1" source="CYsOR69pvxUt32WjJ6Wk-42" target="CYsOR69pvxUt32WjJ6Wk-34">
          <mxGeometry width="50" height="50" relative="1" as="geometry">
            <mxPoint x="1155.51495439367" y="198.88300009025056" as="sourcePoint" />
            <mxPoint x="1190" y="140" as="targetPoint" />
          </mxGeometry>
        </mxCell>
        <mxCell id="CYsOR69pvxUt32WjJ6Wk-67" value="" style="endArrow=none;html=1;rounded=0;exitX=0.5;exitY=1;exitDx=0;exitDy=0;entryX=0.5;entryY=0;entryDx=0;entryDy=0;" edge="1" parent="1" source="CYsOR69pvxUt32WjJ6Wk-36" target="CYsOR69pvxUt32WjJ6Wk-34">
          <mxGeometry width="50" height="50" relative="1" as="geometry">
            <mxPoint x="1155.51495439367" y="81.1169999097499" as="sourcePoint" />
            <mxPoint x="1190" y="115" as="targetPoint" />
          </mxGeometry>
        </mxCell>
        <mxCell id="CYsOR69pvxUt32WjJ6Wk-68" value="" style="endArrow=none;html=1;rounded=0;exitX=0;exitY=1;exitDx=0;exitDy=0;entryX=1;entryY=0.25;entryDx=0;entryDy=0;" edge="1" parent="1" source="CYsOR69pvxUt32WjJ6Wk-37" target="CYsOR69pvxUt32WjJ6Wk-34">
          <mxGeometry width="50" height="50" relative="1" as="geometry">
            <mxPoint x="1250" y="210" as="sourcePoint" />
            <mxPoint x="1250" y="160" as="targetPoint" />
          </mxGeometry>
        </mxCell>
        <mxCell id="CYsOR69pvxUt32WjJ6Wk-69" value="" style="endArrow=none;html=1;rounded=0;exitX=0;exitY=0;exitDx=0;exitDy=0;entryX=1;entryY=0.75;entryDx=0;entryDy=0;" edge="1" parent="1" source="CYsOR69pvxUt32WjJ6Wk-43" target="CYsOR69pvxUt32WjJ6Wk-34">
          <mxGeometry width="50" height="50" relative="1" as="geometry">
            <mxPoint x="1344.485045606306" y="81.11699990976399" as="sourcePoint" />
            <mxPoint x="1310" y="115" as="targetPoint" />
          </mxGeometry>
        </mxCell>
        <mxCell id="CYsOR69pvxUt32WjJ6Wk-70" value="" style="endArrow=none;html=1;rounded=0;exitX=0;exitY=0.25;exitDx=0;exitDy=0;entryX=1;entryY=1;entryDx=0;entryDy=0;" edge="1" parent="1" source="CYsOR69pvxUt32WjJ6Wk-21" target="CYsOR69pvxUt32WjJ6Wk-27">
          <mxGeometry width="50" height="50" relative="1" as="geometry">
            <mxPoint x="460" y="110" as="sourcePoint" />
            <mxPoint x="510" y="60" as="targetPoint" />
          </mxGeometry>
        </mxCell>
        <mxCell id="CYsOR69pvxUt32WjJ6Wk-71" value="" style="endArrow=none;html=1;rounded=0;exitX=0.5;exitY=0;exitDx=0;exitDy=0;entryX=0.5;entryY=1;entryDx=0;entryDy=0;" edge="1" parent="1" source="CYsOR69pvxUt32WjJ6Wk-21" target="CYsOR69pvxUt32WjJ6Wk-32">
          <mxGeometry width="50" height="50" relative="1" as="geometry">
            <mxPoint x="665" y="115" as="sourcePoint" />
            <mxPoint x="625.5149543936941" y="91.11699990976399" as="targetPoint" />
          </mxGeometry>
        </mxCell>
        <mxCell id="CYsOR69pvxUt32WjJ6Wk-72" value="" style="endArrow=none;html=1;rounded=0;exitX=0.5;exitY=0;exitDx=0;exitDy=0;entryX=0.5;entryY=1;entryDx=0;entryDy=0;" edge="1" parent="1" source="CYsOR69pvxUt32WjJ6Wk-28" target="CYsOR69pvxUt32WjJ6Wk-21">
          <mxGeometry width="50" height="50" relative="1" as="geometry">
            <mxPoint x="540" y="330" as="sourcePoint" />
            <mxPoint x="590" y="280" as="targetPoint" />
          </mxGeometry>
        </mxCell>
        <mxCell id="CYsOR69pvxUt32WjJ6Wk-73" value="" style="endArrow=none;html=1;rounded=0;exitX=1;exitY=0;exitDx=0;exitDy=0;entryX=0;entryY=0.75;entryDx=0;entryDy=0;" edge="1" parent="1" source="CYsOR69pvxUt32WjJ6Wk-26" target="CYsOR69pvxUt32WjJ6Wk-21">
          <mxGeometry width="50" height="50" relative="1" as="geometry">
            <mxPoint x="725" y="210" as="sourcePoint" />
            <mxPoint x="725" y="160" as="targetPoint" />
          </mxGeometry>
        </mxCell>
        <mxCell id="CYsOR69pvxUt32WjJ6Wk-74" value="" style="endArrow=none;html=1;rounded=0;exitX=0;exitY=0;exitDx=0;exitDy=0;entryX=1;entryY=0.75;entryDx=0;entryDy=0;" edge="1" parent="1" source="CYsOR69pvxUt32WjJ6Wk-29" target="CYsOR69pvxUt32WjJ6Wk-21">
          <mxGeometry width="50" height="50" relative="1" as="geometry">
            <mxPoint x="625.5149543936941" y="198.88300009023624" as="sourcePoint" />
            <mxPoint x="665" y="145" as="targetPoint" />
          </mxGeometry>
        </mxCell>
        <mxCell id="CYsOR69pvxUt32WjJ6Wk-75" value="" style="endArrow=none;html=1;rounded=0;exitX=0;exitY=1;exitDx=0;exitDy=0;entryX=1;entryY=0.25;entryDx=0;entryDy=0;" edge="1" parent="1" source="CYsOR69pvxUt32WjJ6Wk-33" target="CYsOR69pvxUt32WjJ6Wk-21">
          <mxGeometry width="50" height="50" relative="1" as="geometry">
            <mxPoint x="834.4850456063177" y="178.88300009024283" as="sourcePoint" />
            <mxPoint x="785" y="145" as="targetPoint" />
          </mxGeometry>
        </mxCell>
        <mxCell id="CYsOR69pvxUt32WjJ6Wk-77" value="&lt;span style=&quot;font-size: 16px;&quot;&gt;N&lt;/span&gt;" style="text;html=1;align=center;verticalAlign=middle;resizable=0;points=[];autosize=1;strokeColor=none;fillColor=none;" vertex="1" parent="1">
          <mxGeometry x="190" y="165" width="40" height="30" as="geometry" />
        </mxCell>
        <mxCell id="CYsOR69pvxUt32WjJ6Wk-78" value="&lt;span style=&quot;color: rgb(0, 0, 0); font-family: Helvetica; font-size: 16px; font-style: normal; font-variant-ligatures: normal; font-variant-caps: normal; font-weight: 400; letter-spacing: normal; orphans: 2; text-align: center; text-indent: 0px; text-transform: none; widows: 2; word-spacing: 0px; -webkit-text-stroke-width: 0px; background-color: rgb(248, 249, 250); text-decoration-thickness: initial; text-decoration-style: initial; text-decoration-color: initial; float: none; display: inline !important;&quot;&gt;N&lt;/span&gt;" style="text;whiteSpace=wrap;html=1;fontSize=16;" vertex="1" parent="1">
          <mxGeometry x="410" y="200" width="50" height="40" as="geometry" />
        </mxCell>
        <mxCell id="CYsOR69pvxUt32WjJ6Wk-80" value="&lt;span style=&quot;color: rgb(0, 0, 0); font-family: Helvetica; font-size: 16px; font-style: normal; font-variant-ligatures: normal; font-variant-caps: normal; font-weight: 400; letter-spacing: normal; orphans: 2; text-align: center; text-indent: 0px; text-transform: none; widows: 2; word-spacing: 0px; -webkit-text-stroke-width: 0px; background-color: rgb(248, 249, 250); text-decoration-thickness: initial; text-decoration-style: initial; text-decoration-color: initial; float: none; display: inline !important;&quot;&gt;N&lt;/span&gt;" style="text;whiteSpace=wrap;html=1;fontSize=16;" vertex="1" parent="1">
          <mxGeometry x="555" y="410" width="50" height="40" as="geometry" />
        </mxCell>
        <mxCell id="CYsOR69pvxUt32WjJ6Wk-81" value="&lt;span style=&quot;color: rgb(0, 0, 0); font-family: Helvetica; font-size: 16px; font-style: normal; font-variant-ligatures: normal; font-variant-caps: normal; font-weight: 400; letter-spacing: normal; orphans: 2; text-align: center; text-indent: 0px; text-transform: none; widows: 2; word-spacing: 0px; -webkit-text-stroke-width: 0px; background-color: rgb(248, 249, 250); text-decoration-thickness: initial; text-decoration-style: initial; text-decoration-color: initial; float: none; display: inline !important;&quot;&gt;N&lt;/span&gt;" style="text;whiteSpace=wrap;html=1;fontSize=16;" vertex="1" parent="1">
          <mxGeometry x="1070" y="90" width="50" height="40" as="geometry" />
        </mxCell>
        <mxCell id="CYsOR69pvxUt32WjJ6Wk-82" value="&lt;span style=&quot;color: rgb(0, 0, 0); font-family: Helvetica; font-size: 16px; font-style: normal; font-variant-ligatures: normal; font-variant-caps: normal; font-weight: 400; letter-spacing: normal; orphans: 2; text-align: center; text-indent: 0px; text-transform: none; widows: 2; word-spacing: 0px; -webkit-text-stroke-width: 0px; background-color: rgb(248, 249, 250); text-decoration-thickness: initial; text-decoration-style: initial; text-decoration-color: initial; float: none; display: inline !important;&quot;&gt;N&lt;/span&gt;" style="text;whiteSpace=wrap;html=1;fontSize=16;" vertex="1" parent="1">
          <mxGeometry x="850" y="90" width="50" height="40" as="geometry" />
        </mxCell>
        <mxCell id="CYsOR69pvxUt32WjJ6Wk-83" value="&lt;span style=&quot;color: rgb(0, 0, 0); font-family: Helvetica; font-size: 16px; font-style: normal; font-variant-ligatures: normal; font-variant-caps: normal; font-weight: 400; letter-spacing: normal; orphans: 2; text-align: center; text-indent: 0px; text-transform: none; widows: 2; word-spacing: 0px; -webkit-text-stroke-width: 0px; background-color: rgb(248, 249, 250); text-decoration-thickness: initial; text-decoration-style: initial; text-decoration-color: initial; float: none; display: inline !important;&quot;&gt;1&lt;/span&gt;" style="text;whiteSpace=wrap;html=1;fontSize=16;" vertex="1" parent="1">
          <mxGeometry x="340" y="380" width="50" height="40" as="geometry" />
        </mxCell>
        <mxCell id="CYsOR69pvxUt32WjJ6Wk-84" value="&lt;span style=&quot;color: rgb(0, 0, 0); font-family: Helvetica; font-size: 16px; font-style: normal; font-variant-ligatures: normal; font-variant-caps: normal; font-weight: 400; letter-spacing: normal; orphans: 2; text-align: center; text-indent: 0px; text-transform: none; widows: 2; word-spacing: 0px; -webkit-text-stroke-width: 0px; background-color: rgb(248, 249, 250); text-decoration-thickness: initial; text-decoration-style: initial; text-decoration-color: initial; float: none; display: inline !important;&quot;&gt;1&lt;/span&gt;" style="text;whiteSpace=wrap;html=1;fontSize=16;" vertex="1" parent="1">
          <mxGeometry x="200" y="300" width="40" height="40" as="geometry" />
        </mxCell>
      </root>
    </mxGraphModel>
  </diagram>
</mxfile>
